<?xml version="1.0" encoding="UTF-8" standalone="no"?>
<svg
   xmlns:dc="http://purl.org/dc/elements/1.1/"
   xmlns:cc="http://creativecommons.org/ns#"
   xmlns:rdf="http://www.w3.org/1999/02/22-rdf-syntax-ns#"
   xmlns:svg="http://www.w3.org/2000/svg"
   xmlns="http://www.w3.org/2000/svg"
   xmlns:sodipodi="http://sodipodi.sourceforge.net/DTD/sodipodi-0.dtd"
   xmlns:inkscape="http://www.inkscape.org/namespaces/inkscape"
   width="256"
   height="256"
   viewBox="0 0 67.733332 67.733335"
   version="1.1"
   id="svg8"
   inkscape:version="1.0.1 (3bc2e813f5, 2020-09-07)"
   sodipodi:docname="dibujo.svg"
   inkscape:export-filename="./bitmap.png"
   inkscape:export-xdpi="92.319382"
   inkscape:export-ydpi="92.319382">
  <defs
     id="defs2" />
  <sodipodi:namedview
     id="base"
     pagecolor="#ffffff"
     bordercolor="#666666"
     borderopacity="1.0"
     inkscape:pageopacity="0.0"
     inkscape:pageshadow="2"
     inkscape:zoom="2.8"
     inkscape:cx="130.46101"
     inkscape:cy="128.95667"
     inkscape:document-units="mm"
     inkscape:current-layer="layer1"
     showgrid="true"
     units="px"
     inkscape:window-width="1920"
     inkscape:window-height="1015"
     inkscape:window-x="0"
     inkscape:window-y="0"
     inkscape:window-maximized="1"
     inkscape:document-rotation="0">
    <inkscape:grid
       type="xygrid"
       id="grid845" />
  </sodipodi:namedview>
  <metadata
     id="metadata5">
    <rdf:RDF>
      <cc:Work
         rdf:about="">
        <dc:format>image/svg+xml</dc:format>
        <dc:type
           rdf:resource="http://purl.org/dc/dcmitype/StillImage" />
        <dc:title />
      </cc:Work>
    </rdf:RDF>
  </metadata>
  <g
     inkscape:label="Capa 1"
     inkscape:groupmode="layer"
     id="layer1"
     transform="translate(0,-229.26665)">
    <rect
       style="opacity:1;fill:#000000;fill-opacity:1;stroke:#dbb116;stroke-width:2.96499991;stroke-linecap:round;stroke-linejoin:bevel;stroke-miterlimit:4;stroke-dasharray:none;stroke-opacity:1"
       id="rect873"
       width="67.46875"
       height="67.46875"
       x="0"
       y="229.53123" />
    <path
       style="fill:none;stroke:#dbb116;stroke-width:2.96499991;stroke-linecap:butt;stroke-linejoin:bevel;stroke-miterlimit:4;stroke-dasharray:none;stroke-opacity:1"
       d="M 63.012608,240.11457 H 41.567434 v 17.54606 H 35.71875 v -17.54606 h -5.848685 v 17.54606 h -5.848684 v -17.54606 h -5.848684 v 17.54606 H 12.324013 V 240.11457 H 6.475329 v 27.29387 h 37.041667"
       id="path847"
       inkscape:connector-curvature="0" />
    <flowRoot
       xml:space="preserve"
       id="flowRoot849"
       style="font-style:normal;font-variant:normal;font-weight:normal;font-stretch:normal;font-size:53.3333px;line-height:1.25;font-family:'Ubuntu Mono';-inkscape-font-specification:'Ubuntu Mono';letter-spacing:0px;word-spacing:0px;fill:#000000;fill-opacity:1;stroke:none"
       transform="matrix(0.26458333,0,0,0.26458333,0,229.26665)"><flowRegion
         id="flowRegion851"
         style="font-size:53.3333px"><rect
           id="rect853"
           width="230"
           height="90"
           x="15"
           y="161"
           style="font-size:53.33333206px" /></flowRegion><flowPara
         id="flowPara855" /></flowRoot>
    <flowRoot
       xml:space="preserve"
       id="flowRoot857"
       style="font-style:normal;font-variant:normal;font-weight:normal;font-stretch:normal;font-size:26.6667px;line-height:1.25;font-family:'Ubuntu Mono';-inkscape-font-specification:'Ubuntu Mono';letter-spacing:0px;word-spacing:0px;fill:#000000;fill-opacity:1;stroke:none"
       transform="matrix(0.26458333,0,0,0.26458333,0,229.26665)"><flowRegion
         id="flowRegion859"><rect
           id="rect861"
           width="245"
           height="95"
           x="5"
           y="156" /></flowRegion><flowPara
         id="flowPara863" /></flowRoot>
    <path
       d="m 9.7122798,274.33528 q 0,0.96103 -0.3874502,1.70288 -0.3874501,0.72498 -1.0461153,1.12962 0.193725,0.40465 0.4261951,0.92731 0.2453851,0.5058 0.4907702,1.09591 0.2453851,0.57324 0.4778551,1.19707 0.2453851,0.60696 0.4520253,1.19706 H 8.9890395 q -0.3874501,-1.21392 -0.8523903,-2.32669 -0.4520251,-1.11277 -0.8782203,-1.80403 -0.07749,0.0169 -0.23247,0.0169 -0.1420651,0 -0.1937251,0 H 5.9281835 v 4.11386 H 4.8562381 V 271.3005 q 0.1937251,-0.0674 0.4391102,-0.11802 0.2583001,-0.0506 0.5166002,-0.0674 0.271215,-0.0337 0.5295151,-0.0506 0.2583001,-0.0169 0.4649402,-0.0169 1.4464805,0 2.1697207,0.82615 0.7361553,0.82614 0.7361553,2.46157 z m -2.815471,-2.09065 q -0.2970451,0 -0.5811752,0.0169 -0.2712151,0 -0.3874501,0.0337 v 4.02957 h 0.6844952 q 0.4649402,0 0.8265603,-0.0843 0.3745351,-0.0843 0.6328352,-0.30348 0.2712151,-0.23605 0.4132802,-0.62383 0.142065,-0.40464 0.142065,-1.04533 0,-0.60696 -0.142065,-0.99474 -0.1420651,-0.38779 -0.3745352,-0.60697 -0.2324701,-0.23604 -0.5553452,-0.32034 -0.3099601,-0.10116 -0.6586652,-0.10116 z"
       style="font-style:normal;font-variant:normal;font-weight:normal;font-stretch:normal;font-size:48px;line-height:1.25;font-family:'Ubuntu Mono';-inkscape-font-specification:'Ubuntu Mono';letter-spacing:0px;word-spacing:0px;fill:#8699e4;fill-opacity:1;stroke:none;stroke-width:0.264583"
       id="path22" />
    <path
       d="m 13.948376,273.57658 q 1.214011,0 1.872676,0.99475 0.658665,0.97788 0.658665,2.98424 v 0.48894 h -4.287781 q 0.06457,1.21393 0.607005,1.85461 0.555345,0.62383 1.549801,0.62383 0.56826,0 0.968625,-0.11802 0.400365,-0.11802 0.607005,-0.25291 l 0.142065,1.18021 q -0.193725,0.13488 -0.69741,0.28662 -0.503685,0.15175 -1.13652,0.15175 -0.774901,0 -1.368991,-0.30349 -0.581175,-0.32034 -0.968625,-0.85986 -0.38745,-0.53953 -0.581175,-1.28137 -0.193726,-0.75871 -0.193726,-1.63543 0,-1.04533 0.245386,-1.8209 0.245385,-0.77556 0.64575,-1.28136 0.400365,-0.50581 0.90405,-0.75871 0.503685,-0.2529 1.0332,-0.2529 z m 1.446481,3.3383 q 0,-0.99474 -0.400365,-1.56799 -0.400365,-0.5901 -1.059031,-0.5901 -0.374535,0 -0.684495,0.18546 -0.297045,0.18546 -0.5166,0.48894 -0.219555,0.30348 -0.348705,0.69127 -0.12915,0.38778 -0.167895,0.79242 z"
       style="font-style:normal;font-variant:normal;font-weight:normal;font-stretch:normal;font-size:48px;line-height:1.25;font-family:'Ubuntu Mono';-inkscape-font-specification:'Ubuntu Mono';letter-spacing:0px;word-spacing:0px;fill:#8699e4;fill-opacity:1;stroke:none;stroke-width:0.264583"
       id="path24" />
    <path
       d="m 20.199214,273.76204 h 2.531341 v 1.16335 h -2.531341 v 3.64178 q 0,0.59011 0.06457,0.96103 0.06458,0.37092 0.20664,0.60696 0.15498,0.21919 0.38745,0.30349 0.23247,0.0843 0.56826,0.0843 0.464941,0 0.749071,-0.10116 0.28413,-0.10116 0.54243,-0.26977 l 0.15498,1.18021 q -0.18081,0.10116 -0.581175,0.26976 -0.38745,0.16861 -0.968626,0.16861 -0.67158,0 -1.097775,-0.20233 -0.426195,-0.20232 -0.67158,-0.60696 -0.23247,-0.40464 -0.322875,-0.99475 -0.0904,-0.60696 -0.0904,-1.39939 v -3.64178 h -1.265671 v -1.16335 h 1.265671 v -2.19181 l 1.05903,-0.23605 z"
       style="font-style:normal;font-variant:normal;font-weight:normal;font-stretch:normal;font-size:48px;line-height:1.25;font-family:'Ubuntu Mono';-inkscape-font-specification:'Ubuntu Mono';letter-spacing:0px;word-spacing:0px;fill:#8699e4;fill-opacity:1;stroke:none;stroke-width:0.264583"
       id="path26" />
    <path
       d="m 24.900251,281.58513 v -7.40159 q 1.31733,-0.5901 2.660491,-0.5901 0.41328,0 0.787815,0.0506 0.374536,0.0337 0.826562,0.1686 l -0.193725,1.23079 q -0.413281,-0.15174 -0.736157,-0.18546 -0.30996,-0.0506 -0.684495,-0.0506 -0.787816,0 -1.601461,0.28662 v 6.49114 z"
       style="font-style:normal;font-variant:normal;font-weight:normal;font-stretch:normal;font-size:48px;line-height:1.25;font-family:'Ubuntu Mono';-inkscape-font-specification:'Ubuntu Mono';letter-spacing:0px;word-spacing:0px;fill:#8699e4;fill-opacity:1;stroke:none;stroke-width:0.264583"
       id="path28" />
    <path
       d="m 35.916724,277.67359 q 0,0.9273 -0.20664,1.68601 -0.193725,0.74184 -0.555345,1.28137 -0.36162,0.53952 -0.865306,0.843 -0.503685,0.28663 -1.097775,0.28663 -0.581175,0 -1.08486,-0.28663 -0.49077,-0.30348 -0.852391,-0.843 -0.36162,-0.53953 -0.56826,-1.28137 -0.193725,-0.75871 -0.193725,-1.68601 0,-0.92731 0.193725,-1.68601 0.20664,-0.75871 0.56826,-1.28137 0.361621,-0.53953 0.852391,-0.82615 0.503685,-0.30348 1.08486,-0.30348 0.59409,0 1.097775,0.30348 0.503686,0.28662 0.865306,0.82615 0.36162,0.52266 0.555345,1.28137 0.20664,0.7587 0.20664,1.68601 z m -1.097775,0 q 0,-1.33195 -0.439111,-2.09066 -0.43911,-0.77556 -1.18818,-0.77556 -0.736155,0 -1.175265,0.77556 -0.426195,0.75871 -0.426195,2.09066 0,1.31509 0.426195,2.09065 0.43911,0.75871 1.175265,0.75871 0.74907,0 1.18818,-0.75871 0.439111,-0.77556 0.439111,-2.09065 z"
       style="font-style:normal;font-variant:normal;font-weight:normal;font-stretch:normal;font-size:48px;line-height:1.25;font-family:'Ubuntu Mono';-inkscape-font-specification:'Ubuntu Mono';letter-spacing:0px;word-spacing:0px;fill:#8699e4;fill-opacity:1;stroke:none;stroke-width:0.264583"
       id="path30" />
    <path
       d="m 39.468326,271.04756 q 0.710325,0 1.23984,0.23604 0.542431,0.23605 0.891136,0.67441 0.36162,0.4215 0.529515,1.01161 0.18081,0.5901 0.18081,1.31508 0,1.63544 -0.736155,2.52902 -0.736156,0.87673 -2.208466,0.87673 h -0.92988 v 3.89468 h -1.059031 v -10.28467 q 0.23247,-0.0674 0.503685,-0.11802 0.284131,-0.0506 0.555346,-0.0843 0.28413,-0.0337 0.54243,-0.0337 0.271215,-0.0169 0.49077,-0.0169 z m 0.07749,1.19707 q -0.33579,0 -0.64575,0.0169 -0.30996,0 -0.46494,0.0337 v 4.21503 h 0.87822 q 0.968625,0 1.433565,-0.5058 0.477856,-0.50581 0.477856,-1.66916 0,-2.09065 -1.678951,-2.09065 z"
       style="font-style:normal;font-variant:normal;font-weight:normal;font-stretch:normal;font-size:48px;line-height:1.25;font-family:'Ubuntu Mono';-inkscape-font-specification:'Ubuntu Mono';letter-spacing:0px;word-spacing:0px;fill:#8699e4;fill-opacity:1;stroke:none;stroke-width:0.264583"
       id="path32" />
    <path
       d="m 44.272683,281.58513 v -7.40159 q 1.317331,-0.5901 2.660491,-0.5901 0.41328,0 0.787815,0.0506 0.374536,0.0337 0.826561,0.1686 l -0.193725,1.23079 q -0.41328,-0.15174 -0.736156,-0.18546 -0.30996,-0.0506 -0.684495,-0.0506 -0.787815,0 -1.60146,0.28662 v 6.49114 z"
       style="font-style:normal;font-variant:normal;font-weight:normal;font-stretch:normal;font-size:48px;line-height:1.25;font-family:'Ubuntu Mono';-inkscape-font-specification:'Ubuntu Mono';letter-spacing:0px;word-spacing:0px;fill:#8699e4;fill-opacity:1;stroke:none;stroke-width:0.264583"
       id="path34" />
    <path
       d="m 55.289158,277.67359 q 0,0.9273 -0.20664,1.68601 -0.193725,0.74184 -0.555345,1.28137 -0.361621,0.53952 -0.865306,0.843 -0.503685,0.28663 -1.097775,0.28663 -0.581175,0 -1.08486,-0.28663 -0.490771,-0.30348 -0.852391,-0.843 -0.36162,-0.53953 -0.56826,-1.28137 -0.193725,-0.75871 -0.193725,-1.68601 0,-0.92731 0.193725,-1.68601 0.20664,-0.75871 0.56826,-1.28137 0.36162,-0.53953 0.852391,-0.82615 0.503685,-0.30348 1.08486,-0.30348 0.59409,0 1.097775,0.30348 0.503685,0.28662 0.865306,0.82615 0.36162,0.52266 0.555345,1.28137 0.20664,0.7587 0.20664,1.68601 z m -1.097776,0 q 0,-1.33195 -0.43911,-2.09066 -0.43911,-0.77556 -1.18818,-0.77556 -0.736155,0 -1.175265,0.77556 -0.426196,0.75871 -0.426196,2.09066 0,1.31509 0.426196,2.09065 0.43911,0.75871 1.175265,0.75871 0.74907,0 1.18818,-0.75871 0.43911,-0.77556 0.43911,-2.09065 z"
       style="font-style:normal;font-variant:normal;font-weight:normal;font-stretch:normal;font-size:48px;line-height:1.25;font-family:'Ubuntu Mono';-inkscape-font-specification:'Ubuntu Mono';letter-spacing:0px;word-spacing:0px;fill:#8699e4;fill-opacity:1;stroke:none;stroke-width:0.264583"
       id="path36" />
    <path
       d="m 58.94408,273.76204 h 2.531341 v 1.16335 H 58.94408 v 3.64178 q 0,0.59011 0.06457,0.96103 0.06458,0.37092 0.20664,0.60696 0.15498,0.21919 0.38745,0.30349 0.23247,0.0843 0.56826,0.0843 0.46494,0 0.74907,-0.10116 0.284131,-0.10116 0.542431,-0.26977 l 0.15498,1.18021 q -0.18081,0.10116 -0.581175,0.26976 -0.387451,0.16861 -0.968626,0.16861 -0.67158,0 -1.097775,-0.20233 -0.426195,-0.20232 -0.67158,-0.60696 -0.23247,-0.40464 -0.322876,-0.99475 -0.0904,-0.60696 -0.0904,-1.39939 v -3.64178 h -1.26567 v -1.16335 h 1.26567 v -2.19181 l 1.059031,-0.23605 z"
       style="font-style:normal;font-variant:normal;font-weight:normal;font-stretch:normal;font-size:48px;line-height:1.25;font-family:'Ubuntu Mono';-inkscape-font-specification:'Ubuntu Mono';letter-spacing:0px;word-spacing:0px;fill:#8699e4;fill-opacity:1;stroke:none;stroke-width:0.264583"
       id="path38" />
  </g>
</svg>
